<svg height="482pt" viewBox="0 -1 482.432 482" width="482pt" xmlns="http://www.w3.org/2000/svg" fill="#fff">
  <path d="M72 32.215h32v16H72zm0 0M120 32.215h64v16h-64zm0 0M120 432.215h64v16h-64zm0 0M240 224.215v-48a8 8 0 0 0-8-8h-64a8 8 0 0 0-8 8v48a8 8 0 0 0 8 8h64a8 8 0 0 0 8-8zm-16-32h-24v-8h24zm-48-8h8v32h-8zm24 32v-8h24v8zm0 0M384 168.215a31.905 31.905 0 0 0-16 4.36c-13.445-7.848-30.586-4.88-40.613 7.03-10.028 11.907-10.028 29.305 0 41.215 10.027 11.91 27.168 14.875 40.613 7.028a32 32 0 0 0 46.195-38.614A31.999 31.999 0 0 0 384 168.214zm-32 48c-8.836 0-16-7.164-16-16s7.164-16 16-16a15.88 15.88 0 0 1 4 .504c-.313.57-.55 1.176-.8 1.761-.16.336-.329.665-.481 1.008a32.578 32.578 0 0 0-1.809 5.52c-.078.36-.133.726-.207 1.09a29.166 29.166 0 0 0 0 12.222c.074.375.129.743.207 1.114a32.17 32.17 0 0 0 1.785 5.445c.168.394.36.8.543 1.16.274.555.496 1.129.801 1.672a15.638 15.638 0 0 1-4.039.504zm32 0a15.926 15.926 0 0 1-10.742-4.184 15.895 15.895 0 0 1 .11-23.719A15.803 15.803 0 0 1 384 184.215c8.836 0 16 7.164 16 16s-7.164 16-16 16zm0 0M208 264.215h16v16h-16zm0 0M240 264.215h16v16h-16zm0 0M272 264.215h16v16h-16zm0 0M304 264.215h16v16h-16zm0 0M336 264.215h16v16h-16zm0 0M368 264.215h16v16h-16zm0 0M208 296.215h64v16h-64zm0 0M320 296.215h64v16h-64zm0 0"/>
  <path d="M481.602 275.992l-49.7-185.601c-3.46-12.762-16.597-20.32-29.375-16.895L304 99.91V40.215c-.027-22.078-17.918-39.973-40-40H40C17.918.242.027 18.137 0 40.215v400c.027 22.082 17.918 39.972 40 40h224c22.082-.028 39.973-17.918 40-40v-96h120c13.254 0 24-10.746 24-24V309.87l16.664-4.496a23.983 23.983 0 0 0 14.512-11.2 23.644 23.644 0 0 0 2.426-18.183zM406.656 89.016a8.05 8.05 0 0 1 9.778 5.601l11.238 41.977a23.644 23.644 0 0 0-3.672-.38H230.297zM40 16.215h224c13.254 0 24 10.746 24 24v24H16v-24c0-13.254 10.746-24 24-24zm224 448H40c-13.254 0-24-10.746-24-24v-24h272v24c0 13.254-10.746 24-24 24zm24-64H16v-320h272v24l-119.527 32H144v-24h-16v256h16v-24h144zm144-80a8 8 0 0 1-8 8H144v-176h280a8 8 0 0 1 8 8zm33.328-34.055a8.064 8.064 0 0 1-4.848 3.77L448 293.297v-80.8l18.129 67.679a7.842 7.842 0 0 1-.8 5.984zm0 0"/>
</svg>
