<svg xmlns="http://www.w3.org/2000/svg" viewBox="0 0 512 512">
  <g fill="#fff">
    <path d="M503.467 494.933h-34.661a66.43 66.43 0 0 0 .528-8.533c0-24.086-13.861-44.588-34.133-54.082V145.067c0-5.12-3.413-8.533-8.533-8.533h-128v-128c0-5.12-3.413-8.533-8.533-8.533h-230.4C54.613 0 51.2 3.413 51.2 8.533v486.4H8.533c-5.12 0-8.533 3.413-8.533 8.533S3.413 512 8.533 512H503.467c5.12 0 8.533-3.413 8.533-8.533s-3.413-8.534-8.533-8.534zm-85.334-67.664a61.623 61.623 0 0 0-8.533-.603 57.633 57.633 0 0 0-18.731 3.148c-1.487-1.982-3.884-3.148-6.869-3.148-5.12 0-8.533 3.413-8.533 8.533v2.615a59.762 59.762 0 0 0-8.97 7.943c-.431.456-.855.918-1.27 1.388-7.071-8.839-16.179-15.233-26.477-18.346-1.479-1.357-3.518-2.134-5.95-2.134-.951 0-1.843.119-2.666.344a50.562 50.562 0 0 0-5.867-.344c-5.348 0-11.37.694-16.249 2.675-.604.204-1.204.414-1.798.639-5.897-4.794-12.794-8.245-20.062-10.144-.077-.021-.156-.036-.232-.057a52.418 52.418 0 0 0-1.909-.457 50.919 50.919 0 0 0-1.565-.311c-.227-.042-.454-.087-.682-.126a49.98 49.98 0 0 0-2.4-.353 48.26 48.26 0 0 0-1.534-.169c-.375-.035-.751-.061-1.127-.088-.402-.028-.803-.061-1.208-.08a50.66 50.66 0 0 0-2.434-.063c-.628 0-1.251.013-1.871.036-.406.014-.811.039-1.216.062-.162.01-.326.017-.488.028-7.774.516-15.412 2.71-22.026 6.596V153.6h170.667v273.669zM68.267 17.067H281.6v119.467h-42.667c-5.12 0-8.533 3.413-8.533 8.533v265.387a61.815 61.815 0 0 0-14.861-10.937 57.506 57.506 0 0 0-1.461-.752c-.193-.095-.384-.194-.578-.287a59.076 59.076 0 0 0-19.642-5.617l-.293-.028a58.788 58.788 0 0 0-2.424-.19c-.215-.013-.43-.026-.646-.037a58.92 58.92 0 0 0-2.762-.072c-12.7 0-24.466 4.177-34.133 11.197v-2.663c0-5.12-3.413-8.533-8.533-8.533-5.12 0-8.533 3.413-8.533 8.533v17.067c0 1.28.213 2.453.613 3.493a61.518 61.518 0 0 0-8.293 22.961 57.96 57.96 0 0 0-26.453 9.943v-2.263c0-5.12-3.413-8.533-8.533-8.533-5.12 0-8.533 3.413-8.533 8.533v17.067c0 .996.133 1.925.379 2.779a59.514 59.514 0 0 0-8.296 22.82h-9.149V17.067zm64.383 443.91c.169-.015.34-.025.51-.038.45-.035.9-.069 1.354-.09a45.05 45.05 0 0 1 2.02-.05c5.12 0 8.533-3.413 8.533-8.533 0-23.893 18.773-42.667 42.667-42.667 21.333 0 39.253 15.36 41.813 36.693a9.253 9.253 0 0 0 3.821 5.474c.118.083.239.161.362.238.132.081.263.163.4.237a8.827 8.827 0 0 0 1.023.486 9.491 9.491 0 0 0 1.222.393c.508.169 1.085.234 1.695.215 2.805.041 5.414-1.493 6.837-3.626l.002-.002.853-.853c6.827-8.533 16.213-13.653 27.307-13.653 5.762 0 11.521 1.614 16.69 4.632-10.179 9.571-15.951 22.048-16.622 35.398a51.246 51.246 0 0 0-.068 2.637c0 5.934.987 11.621 2.94 17.067H94.72c3.994-18.373 19.204-32.257 37.93-33.958zm163.504 33.956c-3.26-5.514-5.167-12.033-5.167-17.92 0-9.436 3.72-17.937 10.114-24.151a34.545 34.545 0 0 1 3.901-3.126 8.57 8.57 0 0 0 3.905-.883c18.773-10.24 40.96-.853 47.787 17.92.853 2.56 3.413 5.12 7.68 5.12.81 0 1.706-.258 2.606-.716 2.141-.351 3.834-1.923 5.074-4.404 3.307-7.027 8.427-12.637 14.659-16.57 1.345-.375 2.5-1.039 3.419-1.94 5.861-2.946 12.505-4.53 19.469-4.53 23.893 0 42.667 18.773 42.667 42.667 0 2.56 0 5.973-.853 8.533H296.154z"/>
    <path d="M281.6 221.867c-5.12 0-8.533 3.413-8.533 8.533v17.067c0 5.12 3.413 8.533 8.533 8.533s8.533-3.413 8.533-8.533V230.4c0-5.12-3.413-8.533-8.533-8.533zM281.6 375.467c-5.12 0-8.533 3.413-8.533 8.533v17.067c0 5.12 3.413 8.533 8.533 8.533s8.533-3.413 8.533-8.533V384c0-5.12-3.413-8.533-8.533-8.533zM281.6 273.067c-5.12 0-8.533 3.413-8.533 8.533v17.067c0 5.12 3.413 8.533 8.533 8.533s8.533-3.413 8.533-8.533V281.6c0-5.12-3.413-8.533-8.533-8.533zM281.6 324.267c-5.12 0-8.533 3.413-8.533 8.533v17.067c0 5.12 3.413 8.533 8.533 8.533s8.533-3.413 8.533-8.533V332.8c0-5.12-3.413-8.533-8.533-8.533zM281.6 170.667c-5.12 0-8.533 3.413-8.533 8.533v17.067c0 5.12 3.413 8.533 8.533 8.533s8.533-3.413 8.533-8.533V179.2c0-5.12-3.413-8.533-8.533-8.533zM332.8 256c5.12 0 8.533-3.413 8.533-8.533V230.4c0-5.12-3.413-8.533-8.533-8.533-5.12 0-8.533 3.413-8.533 8.533v17.067c0 5.12 3.413 8.533 8.533 8.533zM332.8 204.8c5.12 0 8.533-3.413 8.533-8.533V179.2c0-5.12-3.413-8.533-8.533-8.533-5.12 0-8.533 3.413-8.533 8.533v17.067c0 5.12 3.413 8.533 8.533 8.533zM332.8 307.2c5.12 0 8.533-3.413 8.533-8.533V281.6c0-5.12-3.413-8.533-8.533-8.533-5.12 0-8.533 3.413-8.533 8.533v17.067c0 5.12 3.413 8.533 8.533 8.533zM332.8 358.4c5.12 0 8.533-3.413 8.533-8.533V332.8c0-5.12-3.413-8.533-8.533-8.533-5.12 0-8.533 3.413-8.533 8.533v17.067c0 5.12 3.413 8.533 8.533 8.533zM332.8 409.6c5.12 0 8.533-3.413 8.533-8.533V384c0-5.12-3.413-8.533-8.533-8.533-5.12 0-8.533 3.413-8.533 8.533v17.067c0 5.12 3.413 8.533 8.533 8.533zM384 307.2c5.12 0 8.533-3.413 8.533-8.533V281.6c0-5.12-3.413-8.533-8.533-8.533s-8.533 3.413-8.533 8.533v17.067c0 5.12 3.413 8.533 8.533 8.533zM384 256c5.12 0 8.533-3.413 8.533-8.533V230.4c0-5.12-3.413-8.533-8.533-8.533s-8.533 3.413-8.533 8.533v17.067c0 5.12 3.413 8.533 8.533 8.533zM384 409.6c5.12 0 8.533-3.413 8.533-8.533V384c0-5.12-3.413-8.533-8.533-8.533s-8.533 3.413-8.533 8.533v17.067c0 5.12 3.413 8.533 8.533 8.533zM384 358.4c5.12 0 8.533-3.413 8.533-8.533V332.8c0-5.12-3.413-8.533-8.533-8.533s-8.533 3.413-8.533 8.533v17.067c0 5.12 3.413 8.533 8.533 8.533zM384 204.8c5.12 0 8.533-3.413 8.533-8.533V179.2c0-5.12-3.413-8.533-8.533-8.533s-8.533 3.413-8.533 8.533v17.067c0 5.12 3.413 8.533 8.533 8.533zM93.867 324.267c5.12 0 8.533-3.413 8.533-8.533v-17.067c0-5.12-3.413-8.533-8.533-8.533-5.12 0-8.533 3.413-8.533 8.533v17.067c-.001 5.119 3.413 8.533 8.533 8.533zM93.867 375.467c5.12 0 8.533-3.413 8.533-8.533v-17.067c0-5.12-3.413-8.533-8.533-8.533-5.12 0-8.533 3.413-8.533 8.533v17.067c-.001 5.119 3.413 8.533 8.533 8.533zM93.867 426.667c5.12 0 8.533-3.413 8.533-8.533v-17.067c0-5.12-3.413-8.533-8.533-8.533-5.12 0-8.533 3.413-8.533 8.533v17.067c-.001 5.119 3.413 8.533 8.533 8.533zM93.867 68.267c5.12 0 8.533-3.413 8.533-8.533V42.667c0-5.12-3.413-8.533-8.533-8.533-5.12 0-8.533 3.413-8.533 8.533v17.067c-.001 5.119 3.413 8.533 8.533 8.533zM93.867 119.467c5.12 0 8.533-3.413 8.533-8.533V93.867c0-5.12-3.413-8.533-8.533-8.533-5.12 0-8.533 3.413-8.533 8.533v17.067c-.001 5.119 3.413 8.533 8.533 8.533zM93.867 170.667c5.12 0 8.533-3.413 8.533-8.533v-17.067c0-5.12-3.413-8.533-8.533-8.533-5.12 0-8.533 3.413-8.533 8.533v17.067c-.001 5.119 3.413 8.533 8.533 8.533zM93.867 221.867c5.12 0 8.533-3.413 8.533-8.533v-17.067c0-5.12-3.413-8.533-8.533-8.533-5.12 0-8.533 3.413-8.533 8.533v17.067c-.001 5.119 3.413 8.533 8.533 8.533zM93.867 273.067c5.12 0 8.533-3.413 8.533-8.533v-17.067c0-5.12-3.413-8.533-8.533-8.533-5.12 0-8.533 3.413-8.533 8.533v17.067c-.001 5.119 3.413 8.533 8.533 8.533zM145.067 119.467c5.12 0 8.533-3.413 8.533-8.533V93.867c0-5.12-3.413-8.533-8.533-8.533-5.12 0-8.533 3.413-8.533 8.533v17.067c-.001 5.119 3.413 8.533 8.533 8.533zM145.067 68.267c5.12 0 8.533-3.413 8.533-8.533V42.667c0-5.12-3.413-8.533-8.533-8.533-5.12 0-8.533 3.413-8.533 8.533v17.067c-.001 5.119 3.413 8.533 8.533 8.533zM145.067 221.867c5.12 0 8.533-3.413 8.533-8.533v-17.067c0-5.12-3.413-8.533-8.533-8.533-5.12 0-8.533 3.413-8.533 8.533v17.067c-.001 5.119 3.413 8.533 8.533 8.533zM145.067 170.667c5.12 0 8.533-3.413 8.533-8.533v-17.067c0-5.12-3.413-8.533-8.533-8.533-5.12 0-8.533 3.413-8.533 8.533v17.067c-.001 5.119 3.413 8.533 8.533 8.533zM145.067 273.067c5.12 0 8.533-3.413 8.533-8.533v-17.067c0-5.12-3.413-8.533-8.533-8.533-5.12 0-8.533 3.413-8.533 8.533v17.067c-.001 5.119 3.413 8.533 8.533 8.533zM145.067 324.267c5.12 0 8.533-3.413 8.533-8.533v-17.067c0-5.12-3.413-8.533-8.533-8.533-5.12 0-8.533 3.413-8.533 8.533v17.067c-.001 5.119 3.413 8.533 8.533 8.533zM145.067 375.467c5.12 0 8.533-3.413 8.533-8.533v-17.067c0-5.12-3.413-8.533-8.533-8.533-5.12 0-8.533 3.413-8.533 8.533v17.067c-.001 5.119 3.413 8.533 8.533 8.533zM196.267 170.667c5.12 0 8.533-3.413 8.533-8.533v-17.067c0-5.12-3.413-8.533-8.533-8.533s-8.533 3.413-8.533 8.533v17.067c-.001 5.119 3.413 8.533 8.533 8.533zM196.267 119.467c5.12 0 8.533-3.413 8.533-8.533V93.867c0-5.12-3.413-8.533-8.533-8.533s-8.533 3.413-8.533 8.533v17.067c-.001 5.119 3.413 8.533 8.533 8.533zM196.267 68.267c5.12 0 8.533-3.413 8.533-8.533V42.667c0-5.12-3.413-8.533-8.533-8.533s-8.533 3.413-8.533 8.533v17.067c-.001 5.119 3.413 8.533 8.533 8.533zM196.267 375.467c5.12 0 8.533-3.413 8.533-8.533v-17.067c0-5.12-3.413-8.533-8.533-8.533s-8.533 3.413-8.533 8.533v17.067c-.001 5.119 3.413 8.533 8.533 8.533zM196.267 324.267c5.12 0 8.533-3.413 8.533-8.533v-17.067c0-5.12-3.413-8.533-8.533-8.533s-8.533 3.413-8.533 8.533v17.067c-.001 5.119 3.413 8.533 8.533 8.533zM196.267 273.067c5.12 0 8.533-3.413 8.533-8.533v-17.067c0-5.12-3.413-8.533-8.533-8.533s-8.533 3.413-8.533 8.533v17.067c-.001 5.119 3.413 8.533 8.533 8.533zM196.267 221.867c5.12 0 8.533-3.413 8.533-8.533v-17.067c0-5.12-3.413-8.533-8.533-8.533s-8.533 3.413-8.533 8.533v17.067c-.001 5.119 3.413 8.533 8.533 8.533zM247.467 119.467c5.12 0 8.533-3.413 8.533-8.533V93.867c0-5.12-3.413-8.533-8.533-8.533s-8.533 3.413-8.533 8.533v17.067c-.001 5.119 3.413 8.533 8.533 8.533zM247.467 68.267c5.12 0 8.533-3.413 8.533-8.533V42.667c0-5.12-3.413-8.533-8.533-8.533s-8.533 3.413-8.533 8.533v17.067c-.001 5.119 3.413 8.533 8.533 8.533z"/>
  </g>
</svg>
