<svg xmlns="http://www.w3.org/2000/svg" viewBox="0 0 58.424 58.424">
    <path fill="#fff" d="M57.417 14.489L43.007 0v8.652c-3.874.031-6.7.909-8.556 1.771H1.007v48h48V22.945l8.41-8.456zm-14.195-3.838c.247 0 .498.004.755.012l1.03.03V4.848l9.59 9.642-5.59 5.619-.948.953-3.052 3.069V18.528l-.765-.185c-.036-.009-.756-.179-1.928-.237-3.221-.161-9.887.532-15.393 7.803.128-2.78 1.007-7.121 4.672-10.93a18.057 18.057 0 0 1 1.592-1.477l.011-.009.114-.087.067-.051c.036-.027.081-.058.124-.088a6.696 6.696 0 0 1 .257-.175 10.8 10.8 0 0 1 .252-.16l.074-.045c1.448-.873 4.455-2.236 9.138-2.236z"/>
</svg>