<svg xmlns="http://www.w3.org/2000/svg" viewBox="0 0 512 512" fill="#fff">
  <path d="M501.947 337.892c-14.905-24.751-47.034-32.892-71.9-18.349l-63.453 33.371c-6.391-21.978-26.713-38.09-50.728-38.09h-96.069c-13.273 0-23.615-4.132-37.928-9.852-16.747-6.69-36.858-14.719-66.701-17.395v-7.963H2.496V512h112.672v-23.761c3.083 2.022 6.308 4.124 9.65 6.287C150.005 510.824 163.959 512 183.959 512l104.912-.038c18.059 0 34.626-7.284 50.045-14.746 15.043-7.277 131.61-78.612 145.118-86.884 24.88-15.048 32.918-47.52 17.913-72.44zM72.916 469.748H44.748V321.865h28.168v147.883zm389.235-95.56l-.135.083c-49.445 30.282-131.584 80.113-141.502 84.911-11.008 5.327-22.52 10.528-31.651 10.528l-104.912.038c-13.898 0-19.651 0-36.179-10.695a1898.154 1898.154 0 0 1-32.602-21.588V330.03c21.596 2.42 36.502 8.374 51.025 14.177 15.832 6.327 32.203 12.867 53.605 12.867h96.069c5.825 0 10.563 4.738 10.563 10.563 0 3.852-1.989 6.377-3.174 7.541l.341.346-34.7 18.249 19.668 37.396 141.624-74.481 1.063-.6c4.991-3.006 11.497-1.39 14.5 3.6 3.001 4.992 1.387 11.494-3.603 14.5zM385.896 102.043l-97.047-14.102L245.445 0l-43.401 87.941-97.048 14.102 70.224 68.453-16.577 96.656 86.803-45.635 86.803 45.635-16.578-96.656 70.225-68.453zm-99.72 38.195l-15.907 15.505 3.755 21.894 2.106 12.276-11.025-5.796-19.661-10.338-19.661 10.338-11.025 5.796 2.106-12.276 3.755-21.894-15.906-15.505-8.919-8.694 12.329-1.79 21.982-3.196 9.829-19.919 5.513-11.169 5.513 11.169 9.829 19.919 21.982 3.196 12.326 1.79-8.921 8.694z"/>
</svg>
