<svg xmlns="http://www.w3.org/2000/svg" viewBox="0 0 59 59">
    <path fill="#fff" d="M54.199 47.02a1.001 1.001 0 0 0-1.18.781C51.903 53.303 47.574 57 42.249 57c-5.028 0-9.446-3.3-10.948-8H36v-2h-8v8h2v-3.849C32.169 55.833 36.915 59 42.249 59c6.304 0 11.42-4.341 12.731-10.801a1 1 0 0 0-.781-1.179zM54 35v4.309C51.75 34.854 47.296 32 42.249 32c-6.109 0-11.541 3.997-13.209 9.721a1 1 0 1 0 1.92.558C32.358 37.482 37.105 34 42.249 34c4.565 0 8.562 2.766 10.33 7H48v2h8v-8h-2zM9.833 18h13a1 1 0 1 0 0-2h-13a1 1 0 1 0 0 2zM20.833 48a1 1 0 1 0 0-2h-11a1 1 0 1 0 0 2h11zM38.833 22h-29a1 1 0 1 0 0 2h29a1 1 0 1 0 0-2zM26.833 34h-17a1 1 0 1 0 0 2h17a1 1 0 1 0 0-2zM23.833 40h-14a1 1 0 1 0 0 2h14a1 1 0 1 0 0-2zM9.833 28a1 1 0 1 0 0 2h14a1 1 0 1 0 0-2h-14zM38.833 28h-7a1 1 0 1 0 0 2h7a1 1 0 1 0 0-2zM27.13 28.29c-.19.189-.3.449-.3.71 0 .26.109.52.29.71.19.18.449.29.71.29.27 0 .52-.11.71-.29a1.011 1.011 0 0 0 0-1.42c-.38-.37-1.05-.37-1.41 0z"/>
    <path fill="#fff" d="M23 56H5V8h7v2a1 1 0 0 0 1 1h23a1 1 0 0 0 1-1V8h7v19a1 1 0 1 0 2 0V7a1 1 0 0 0-1-1h-8V4a1 1 0 0 0-1-1h-6V1a1 1 0 0 0-1-1h-9a1 1 0 0 0-1 1v2h-6a1 1 0 0 0-1 1v2H4a1 1 0 0 0-1 1v50a1 1 0 0 0 1 1h19a1 1 0 1 0 0-2zM21 2h7v4h-7V2zm-7 3h5v2a1 1 0 0 0 1 1h9a1 1 0 0 0 1-1V5h5v4H14V5z"/>
</svg>