<svg xmlns="http://www.w3.org/2000/svg" viewBox="0 0 482.616 482.616" fill="#fff">
  <path d="M275.497 451.298l.346-152.566 15.024 39.127a10.914 10.914 0 0 0 10.187 6.997c1.293 0 2.623-.235 3.899-.732 5.618-2.155 8.425-8.458 6.272-14.082l-35.49-92.475a14.315 14.315 0 0 0-13.364-9.186h-.008l-15.011 36.748V253.46a4.02 4.02 0 0 0-4.023-4.01h-5.145a3.993 3.993 0 0 0-3.993 4.01v11.669l-15.026-36.748a14.315 14.315 0 0 0-13.365 9.187l-35.481 92.473c-2.153 5.624.64 11.927 6.257 14.082 1.299.498 2.607.732 3.916.732 4.367 0 8.5-2.659 10.17-6.997l15.024-39.127.079 152.575c-24.057 2.783-40.638 8.276-40.638 14.671 0 9.188 33.821 16.639 75.534 16.639 41.72 0 75.541-7.451 75.541-16.639 0-6.404-16.619-11.904-40.705-14.679zm-34.723-167.16a5.08 5.08 0 0 1 5.086 5.079 5.084 5.084 0 1 1-10.17 0 5.08 5.08 0 0 1 5.084-5.079zm0 20.992a5.084 5.084 0 0 1 5.086 5.085 5.078 5.078 0 0 1-5.086 5.077 5.08 5.08 0 0 1-5.084-5.077 5.085 5.085 0 0 1 5.084-5.085zm0 20.989a5.087 5.087 0 0 1 0 10.173 5.087 5.087 0 0 1 0-10.173zm5.649 123.344c-1.94-.031-3.794-.123-5.763-.123-1.961 0-3.816.092-5.74.123l.225-81.456h11.493l-.215 81.456zM265.702 187.549c0-18.48-11.202-33.503-24.928-33.503-13.762 0-24.934 15.023-24.934 33.503 0 18.477 11.172 33.501 24.934 33.501 13.725 0 24.928-15.024 24.928-33.501zm-24.928 25.63c-9.255 0-17.07-11.738-17.07-25.63 0-13.893 7.815-25.633 17.07-25.633 9.232 0 17.051 11.741 17.051 25.633s-7.819 25.63-17.051 25.63z"/>
  <path d="M244.343 230.949h-6.976a5.879 5.879 0 0 0-5.146 3.04 5.867 5.867 0 0 0 .162 5.984l1.684 2.675a3.486 3.486 0 0 0 2.963 1.646h7.639a3.498 3.498 0 0 0 2.985-1.646l1.685-2.675a5.914 5.914 0 0 0 .169-5.984 5.935 5.935 0 0 0-5.165-3.04zM97.237 358.494l-8.317-21.832a14.753 14.753 0 0 0-11.987-9.387h-.004c-2.164 12.21-12.785 21.589-25.615 21.589-12.836 0-23.457-9.373-25.637-21.589a14.723 14.723 0 0 0-11.879 9.33l-8.406 21.89-2.227 5.811c-1.324 3.422-.053 7.282 3.021 9.286 13.018 8.457 28.49 13.422 45.127 13.422 16.638 0 32.111-4.965 45.122-13.422a7.775 7.775 0 0 0 3.026-9.286l-2.224-5.812z"/>
  <path d="M38.082 317.367v9.771h-3.164c1.982 7.359 8.408 12.899 16.395 12.899 7.979 0 14.413-5.54 16.389-12.899h-3.157v-9.771c8.698-6.362 14.687-18.619 14.687-32.839 0-20.689-12.528-37.527-27.918-37.527-15.395 0-27.924 16.838-27.924 37.527-.001 14.219 5.987 26.477 14.692 32.839zm13.231-61.551c10.341 0 19.105 13.147 19.105 28.711 0 15.564-8.765 28.703-19.105 28.703-10.348 0-19.096-13.139-19.096-28.703 0-15.563 8.748-28.711 19.096-28.711zM157.237 192.494l-8.317-21.833a14.753 14.753 0 0 0-11.987-9.387h-.004c-2.164 12.21-12.785 21.589-25.615 21.589-12.836 0-23.457-9.373-25.637-21.589a14.723 14.723 0 0 0-11.879 9.33l-8.406 21.89-2.227 5.811c-1.324 3.422-.053 7.282 3.021 9.286 13.018 8.457 28.49 13.422 45.127 13.422 16.638 0 32.111-4.965 45.122-13.422a7.775 7.775 0 0 0 3.026-9.286l-2.224-5.811z"/>
  <path d="M98.082 151.367v9.771h-3.164c1.982 7.359 8.408 12.899 16.395 12.899 7.979 0 14.413-5.54 16.389-12.899h-3.157v-9.771c8.698-6.362 14.687-18.619 14.687-32.839 0-20.689-12.528-37.527-27.918-37.527-15.395 0-27.924 16.838-27.924 37.527-.001 14.219 5.987 26.477 14.692 32.839zm13.231-61.551c10.341 0 19.106 13.147 19.106 28.711 0 15.564-8.765 28.703-19.106 28.703-10.348 0-19.096-13.139-19.096-28.703 0-15.563 8.748-28.711 19.096-28.711zM196.186 126.59c13.018 8.457 28.49 13.422 45.127 13.422 16.638 0 32.111-4.965 45.122-13.422a7.775 7.775 0 0 0 3.026-9.286l-2.225-5.811-8.317-21.832a14.753 14.753 0 0 0-11.987-9.387h-.004c-2.164 12.209-12.785 21.589-25.615 21.589-12.836 0-23.457-9.373-25.637-21.589a14.723 14.723 0 0 0-11.879 9.33l-8.406 21.89-2.227 5.811c-1.324 3.422-.052 7.281 3.022 9.285z"/>
  <path d="M228.082 70.367v9.771h-3.164c1.982 7.359 8.408 12.899 16.394 12.899 7.98 0 14.413-5.54 16.389-12.899h-3.157v-9.771c8.698-6.362 14.687-18.619 14.687-32.839C269.231 16.838 256.703 0 241.313 0c-15.394 0-27.924 16.838-27.924 37.527 0 14.221 5.988 26.478 14.693 32.84zm13.231-61.551c10.341 0 19.106 13.147 19.106 28.711 0 15.564-8.765 28.703-19.106 28.703-10.348 0-19.096-13.139-19.096-28.703 0-15.563 8.748-28.711 19.096-28.711zM479.452 364.305l-2.227-5.811-8.406-21.89a14.72 14.72 0 0 0-11.879-9.33c-2.18 12.216-12.801 21.589-25.637 21.589-12.831 0-23.451-9.379-25.615-21.589h-.002a14.756 14.756 0 0 0-11.99 9.387l-8.316 21.832-2.226 5.811a7.777 7.777 0 0 0 3.027 9.286c13.011 8.457 28.483 13.422 45.122 13.422 16.637 0 32.109-4.965 45.127-13.422 3.074-2.004 4.346-5.863 3.022-9.285z"/>
  <path d="M403.385 284.527c0 14.22 5.988 26.478 14.686 32.839v9.771h-3.157c1.975 7.359 8.409 12.899 16.389 12.899 7.986 0 14.412-5.54 16.395-12.899h-3.164v-9.771c8.704-6.362 14.693-18.619 14.693-32.839 0-20.689-12.529-37.527-27.924-37.527-15.388 0-27.918 16.838-27.918 37.527zm27.918-28.711c10.348 0 19.096 13.147 19.096 28.711 0 15.564-8.748 28.703-19.096 28.703-10.342 0-19.105-13.139-19.105-28.703 0-15.563 8.763-28.711 19.105-28.711zM419.452 198.305l-2.227-5.811-8.406-21.89a14.72 14.72 0 0 0-11.879-9.33c-2.18 12.216-12.801 21.589-25.637 21.589-12.831 0-23.451-9.379-25.615-21.589h-.002a14.756 14.756 0 0 0-11.99 9.387l-8.316 21.833-2.226 5.811a7.777 7.777 0 0 0 3.027 9.286c13.011 8.457 28.483 13.422 45.122 13.422 16.637 0 32.109-4.965 45.127-13.422 3.074-2.005 4.346-5.864 3.022-9.286z"/>
  <path d="M358.072 151.367v9.771h-3.157c1.975 7.359 8.409 12.899 16.389 12.899 7.986 0 14.412-5.54 16.395-12.899h-3.164v-9.771c8.704-6.362 14.693-18.619 14.693-32.839 0-20.689-12.529-37.527-27.924-37.527-15.39 0-27.918 16.838-27.918 37.527-.001 14.219 5.987 26.477 14.686 32.839zm13.231-61.551c10.348 0 19.096 13.147 19.096 28.711 0 15.564-8.748 28.703-19.096 28.703-10.342 0-19.105-13.139-19.105-28.703 0-15.563 8.763-28.711 19.105-28.711z"/>
</svg>
