<?xml version="1.0"?>
<svg xmlns="http://www.w3.org/2000/svg" height="512px" viewBox="-15 1 511 511.9998" width="512px"><path d="m454.242188 417.957031c-17.066407-17.386719-39.703126-26.960937-63.734376-26.960937-31.085937 0-58.609374 16.03125-75.003906 40.886718-16.382812-24.847656-43.90625-40.886718-75-40.886718-31.082031 0-58.609375 16.03125-75 40.886718-16.386718-24.847656-43.910156-40.886718-75.003906-40.886718-49.742188 0-90 41.234375-90 91.003906v15c0 8.285156 6.714844 15 15 15h450.007812c8.285157 0 15-6.714844 15-15v-15c0-24.050781-9.328124-46.796875-26.265624-64.042969zm-363.738282 3.042969c33.082032 0 60 27.363281 60 61h-120.003906c0-33.636719 26.917969-61 60.003906-61zm150 0c33.085938 0 60.003906 27.363281 60.003906 61h-120.003906c0-33.636719 26.917969-61 60-61zm90.003906 61c0-33.636719 26.914063-61 60-61 33.085938 0 60 27.363281 60 61zm0 0" fill="#fff"/><path d="m150.503906 330.996094c0-18.90625-8.800781-35.789063-22.507812-46.792969 10.527344-8.429687 23.71875-13.207031 37.507812-13.207031 13.789063 0 26.980469 4.777344 37.507813 13.207031-13.707031 11.003906-22.507813 27.886719-22.507813 46.792969 0 33.085937 26.917969 60 60 60 33.085938 0 60.003906-26.914063 60.003906-60 0-18.90625-8.800781-35.789063-22.511718-46.792969 10.53125-8.429687 23.722656-13.207031 37.511718-13.207031 13.785157 0 26.976563 4.777344 37.507813 13.207031-13.710937 11.003906-22.507813 27.886719-22.507813 46.792969 0 33.085937 26.914063 60 60 60 33.085938 0 60-26.914063 60-60 0-33.085938-26.914062-60-60-60-2.542968 0-5.039062.175781-7.5.484375-16.988281-19.246094-41.550781-30.484375-67.5-30.484375-25.953124 0-50.515624 11.242187-67.503906 30.484375-2.457031-.308594-4.957031-.484375-7.5-.484375-2.539062 0-5.039062.175781-7.496094.484375-16.992187-19.246094-41.550781-30.484375-67.503906-30.484375s-50.515625 11.242187-67.503906 30.484375c-2.457031-.308594-4.957031-.484375-7.496094-.484375-33.085937 0-60.003906 26.914062-60.003906 60 0 33.085937 26.917969 60 60.003906 60 33.082032 0 60-26.914063 60-60zm270.003906 0c0 16.542968-13.457031 30-30 30-16.542968 0-30-13.457032-30-30 0-16.542969 13.457032-30 30-30 16.542969 0 30 13.457031 30 30zm-180.003906 30c-16.542968 0-30-13.457032-30-30 0-16.542969 13.464844-30 30-30 16.539063 0 30 13.457031 30 30 0 16.542968-13.457031 30-30 30zm-150 0c-16.542968 0-30-13.457032-30-30 0-16.542969 13.457032-30 30-30 16.539063 0 30 13.457031 30 30 0 16.542968-13.460937 30-30 30zm0 0" fill="#fff"/><path d="m225.503906 180.992188c0-33.082032-26.914062-60-60-60-33.085937 0-60 26.917968-60 60 0 33.085937 26.914063 60.003906 60 60.003906 33.085938 0 60-26.917969 60-60.003906zm-60 30.003906c-16.542968 0-30-13.460938-30-30.003906 0-16.539063 13.457032-30 30-30 16.542969 0 30 13.460937 30 30 0 16.542968-13.457031 30.003906-30 30.003906zm0 0" fill="#fff"/><path d="m375.507812 180.992188c0-33.082032-26.917968-60-60-60-33.085937 0-60.003906 26.917968-60.003906 60 0 33.085937 26.917969 60.003906 60.003906 60.003906 33.082032 0 60-26.917969 60-60.003906zm-60 30.003906c-16.542968 0-30-13.460938-30-30.003906 0-16.539063 13.457032-30 30-30 16.539063 0 30 13.460937 30 30 0 16.542968-13.460937 30.003906-30 30.003906zm0 0" fill="#fff"/><path d="m221.109375 55.597656 4.394531-4.394531v53.789063c0 8.285156 6.71875 15 15 15 8.285156 0 15-6.714844 15-15v-53.789063l4.394532 4.394531c5.859374 5.859375 15.355468 5.859375 21.214843 0 5.859375-5.855468 5.859375-15.355468 0-21.210937l-30-30c-5.875-5.871094-15.386719-5.824219-21.21875 0l-29.996093 30c-5.859376 5.855469-5.859376 15.355469 0 21.210937 5.855468 5.859375 15.355468 5.859375 21.210937 0zm0 0" fill="#fff"/><path d="m371.113281 55.597656 4.394531-4.394531v53.789063c0 8.285156 6.714844 15 15 15 8.285157 0 15-6.714844 15-15v-53.789063l4.394532 4.394531c5.855468 5.859375 15.355468 5.859375 21.214844 0 5.855468-5.855468 5.855468-15.355468 0-21.210937l-30-30c-5.914063-5.910157-15.429688-5.785157-21.21875 0l-29.996094 30c-5.859375 5.855469-5.859375 15.355469 0 21.210937 5.855468 5.859375 15.355468 5.859375 21.210937 0zm0 0" fill="#fff"/><path d="m71.109375 55.597656 4.394531-4.394531v53.789063c0 8.285156 6.714844 15 15 15 8.28125 0 15-6.714844 15-15v-53.789063l4.394532 4.394531c5.855468 5.859375 15.355468 5.859375 21.210937 0 5.859375-5.855468 5.859375-15.355468 0-21.210937l-29.996094-30c-5.835937-5.832031-15.363281-5.851563-21.21875 0l-30 30c-5.859375 5.855469-5.859375 15.355469 0 21.210937 5.855469 5.859375 15.355469 5.859375 21.214844 0zm0 0" fill="#fff"/></svg>
