<svg height="512pt" viewBox="0 0 512 512" width="512pt" xmlns="http://www.w3.org/2000/svg">
    <path fill="#fff" d="M392 0H98.785L0 98.785V512h392zM90 51.215V90H51.215zM362 482H30V120h90V30h242zm0 0"/>
    <path fill="#fff" d="M60 150h272v30H60zm0 0M60 210h272v30H60zm0 0M60 270h272v30H60zm0 0M60 330h272v30H60zm0 0M60 390h88.8v30H60zm0 0M241.8 390H332v30h-90.2zm0 0M181 60h121v30H181zm0 0M467 30c-24.813 0-45 20.188-45 45v333.488l45 91.5 45-91.5V75c0-24.813-20.188-45-45-45zm0 30c8.27 0 15 6.73 15 15v45h-30V75c0-8.27 6.73-15 15-15zm-15 180v-90h30v90zm30 30v90h-30v-90zm-15 162.012l-15-30.5V390h30v11.512zm0 0"/>
</svg>