<svg xmlns="http://www.w3.org/2000/svg" viewBox="0 0 437.073 437.073">
    <path fill="#fff" d="M387.178 166.631a5.929 5.929 0 0 0-.31-1.545c-.066-.191-.113-.37-.197-.555-.292-.632-.656-1.235-1.169-1.748L224.462 1.742c-.513-.513-1.11-.877-1.742-1.164-.185-.09-.376-.137-.573-.203a5.657 5.657 0 0 0-1.51-.298C220.5.066 220.38 0 220.249 0H55.79a5.969 5.969 0 0 0-5.967 5.967v425.139c0 3.3 2.673 5.967 5.967 5.967h325.493c3.3 0 5.967-2.667 5.967-5.967V167.001c0-.132-.066-.245-.072-.37zm-202.002 99.372l-79.491 39.847v.406l79.491 39.853v14.028L90.84 311.542v-10.979l94.336-48.594v14.034zm164.304 45.742l-94.336 48.385v-14.028l80.105-39.853v-.406l-80.105-39.847v-14.034l94.336 48.385v11.398zM226.21 161.034V20.365l70.337 70.331 70.337 70.331H226.21v.007z"/>
</svg>