<?xml version="1.0"?>
<svg xmlns="http://www.w3.org/2000/svg" height="512px" viewBox="-67 1 511 511.999" width="512px"><path d="m366.160156 132.554688c-5.585937 0-10.113281 4.53125-10.113281 10.117187v336.414063c-9.738281-7.765626-21.789063-12.003907-34.332031-12.003907-13.804688 0-27.019532 5.132813-37.203125 14.460938l-7.238281 6.628906-7.242188-6.628906c-10.179688-9.328125-23.394531-14.460938-37.203125-14.460938s-27.019531 5.132813-37.203125 14.460938l-7.242188 6.628906-7.238281-6.628906c-10.183593-9.328125-23.394531-14.460938-37.203125-14.460938s-27.019531 5.132813-37.203125 14.460938l-7.242187 6.628906-7.238282-6.628906c-10.183593-9.328125-23.394531-14.460938-37.203124-14.460938-12.542969 0-24.59375 4.238281-34.332032 12.003907v-458.859376h335.320313v42.253907c0 5.585937 4.527343 10.117187 10.113281 10.117187s10.117188-4.53125 10.117188-10.117187v-52.367188c0-5.585937-4.53125-10.113281-10.117188-10.113281h-355.542969c-5.585937 0-10.113281 4.527344-10.113281 10.113281v491.773438c0 4.007812 2.367188 7.640625 6.039062 9.253906 3.667969 1.617187 7.945313.910156 10.90625-1.796875l14.070313-12.882812c13.421875-12.289063 33.664063-12.289063 47.085937 0l14.070313 12.882812c3.863281 3.539062 9.792969 3.539062 13.660156 0l14.070313-12.882812c13.421875-12.289063 33.664062-12.289063 47.085937 0l14.066407 12.882812c3.867187 3.539062 9.796874 3.539062 13.664062 0l14.066406-12.882812c13.425782-12.289063 33.667969-12.289063 47.089844 0l14.066406 12.882812c3.867188 3.539062 9.796875 3.539062 13.664063 0l14.066406-12.882812c13.425781-12.289063 33.667969-12.289063 47.089844 0l14.066406 12.882812c1.902344 1.742188 4.351563 2.65625 6.832031 2.65625 1.378906 0 2.765625-.28125 4.074219-.859375 3.667969-1.617187 6.039063-5.246094 6.039063-9.253906v-359.214844c0-5.585937-4.527344-10.117187-10.113282-10.117187zm0 0" fill="#FFFFFF"/><path d="m334.15625 52.714844c0-5.585938-4.527344-10.113282-10.113281-10.113282h-141.769531c-5.585938 0-10.113282 4.527344-10.113282 10.113282v81.601562c0 5.582032 4.527344 10.113282 10.113282 10.113282h141.769531c5.585937 0 10.113281-4.53125 10.113281-10.113282zm-20.226562 71.488281h-121.542969v-61.375h121.542969zm0 0" fill="#FFFFFF"/><path d="m48.300781 63.949219h98.59375c5.585938 0 10.117188-4.527344 10.117188-10.113281 0-5.585938-4.53125-10.113282-10.117188-10.113282h-98.59375c-5.585937 0-10.117187 4.527344-10.117187 10.113282 0 5.585937 4.53125 10.113281 10.117187 10.113281zm0 0" fill="#FFFFFF"/><path d="m48.300781 103.628906h69.265625c5.585938 0 10.113282-4.527344 10.113282-10.113281s-4.527344-10.113281-10.113282-10.113281h-69.265625c-5.585937 0-10.117187 4.527344-10.117187 10.113281s4.53125 10.113281 10.117187 10.113281zm0 0" fill="#FFFFFF"/><path d="m48.300781 144.429688h77.355469c5.585938 0 10.113281-4.53125 10.113281-10.113282 0-5.585937-4.527343-10.113281-10.113281-10.113281h-77.355469c-5.585937 0-10.117187 4.527344-10.117187 10.113281 0 5.582032 4.53125 10.113282 10.117187 10.113282zm0 0" fill="#FFFFFF"/><path d="m48.300781 209.929688h209.847657c5.585937 0 10.113281-4.53125 10.113281-10.117188 0-5.582031-4.527344-10.113281-10.113281-10.113281h-209.847657c-5.585937 0-10.117187 4.53125-10.117187 10.113281 0 5.585938 4.53125 10.117188 10.117187 10.117188zm0 0" fill="#FFFFFF"/><path d="m324.042969 227.445312h-275.742188c-5.585937 0-10.117187 4.53125-10.117187 10.117188 0 5.582031 4.53125 10.113281 10.117187 10.113281h275.742188c5.585937 0 10.113281-4.53125 10.113281-10.113281 0-5.585938-4.527344-10.117188-10.113281-10.117188zm0 0" fill="#FFFFFF"/><path d="m48.300781 285.421875h57.128907c5.585937 0 10.113281-4.53125 10.113281-10.117187 0-5.582032-4.527344-10.113282-10.113281-10.113282h-57.128907c-5.585937 0-10.117187 4.53125-10.117187 10.113282 0 5.585937 4.53125 10.117187 10.117187 10.117187zm0 0" fill="#FFFFFF"/><path d="m324.042969 302.9375h-275.742188c-5.585937 0-10.117187 4.527344-10.117187 10.113281 0 5.585938 4.53125 10.113281 10.117187 10.113281h275.742188c5.585937 0 10.113281-4.527343 10.113281-10.113281 0-5.585937-4.527344-10.113281-10.113281-10.113281zm0 0" fill="#FFFFFF"/><path d="m48.300781 360.910156h106.6875c5.585938 0 10.113281-4.527344 10.113281-10.113281s-4.527343-10.113281-10.113281-10.113281h-106.6875c-5.585937 0-10.117187 4.527344-10.117187 10.113281s4.53125 10.113281 10.117187 10.113281zm0 0" fill="#FFFFFF"/><path d="m324.042969 378.429688h-169.054688c-5.585937 0-10.113281 4.527343-10.113281 10.113281 0 5.585937 4.527344 10.113281 10.113281 10.113281h169.054688c5.585937 0 10.113281-4.527344 10.113281-10.113281 0-5.585938-4.527344-10.113281-10.113281-10.113281zm0 0" fill="#FFFFFF"/><path d="m48.300781 398.65625h64.207031c5.585938 0 10.113282-4.527344 10.113282-10.113281 0-5.585938-4.527344-10.113281-10.113282-10.113281h-64.207031c-5.585937 0-10.117187 4.527343-10.117187 10.113281 0 5.585937 4.53125 10.113281 10.117187 10.113281zm0 0" fill="#FFFFFF"/><path d="m48.300781 436.402344h275.742188c5.585937 0 10.113281-4.527344 10.113281-10.113282 0-5.585937-4.527344-10.113281-10.113281-10.113281h-275.742188c-5.585937 0-10.117187 4.527344-10.117187 10.113281 0 5.585938 4.53125 10.113282 10.117187 10.113282zm0 0" fill="#FFFFFF"/><path d="m199.652344 361.113281c1.261718 0 2.542968-.238281 3.785156-.738281 5.179688-2.09375 7.679688-7.988281 5.585938-13.167969l-.160157-.402343c-2.09375-5.175782-7.988281-7.675782-13.167969-5.585938-5.179687 2.09375-7.679687 7.988281-5.585937 13.167969l.160156.402343c1.59375 3.933594 5.378907 6.324219 9.382813 6.324219zm0 0" fill="#FFFFFF"/><path d="m375.800781 98.496094c-2.09375-5.175782-7.988281-7.679688-13.167969-5.585938-5.179687 2.09375-7.679687 7.988282-5.589843 13.167969l.164062.402344c1.59375 3.9375 5.378907 6.328125 9.382813 6.328125 1.261718 0 2.542968-.238282 3.785156-.742188 5.179688-2.089844 7.679688-7.988281 5.585938-13.167968zm0 0" fill="#FFFFFF"/></svg>
